<svg width="40" height="40" viewBox="0 0 36 36" xmlns="http://www.w3.org/2000/svg" aria-hidden="true" role="img">
  <defs>
    <clipPath id="circle-clip">
      <circle cx="18" cy="18" r="18"/>
    </clipPath>
  </defs>
  <g clip-path="url(#circle-clip)">
    <rect x="0" y="0" width="36" height="36" fill="#009B3A"/>
    <polygon fill="#FEDF01" points="18,5 33,18 18,31 3,18"/>
    <circle fill="#002776" cx="18" cy="18" r="7"/>
    <path fill="#CBE9D4" d="M12.5 15.5a7 7 0 0 0-.7 2.1c4.3-.3 10.1 2 12.6 4.9c.4-.6.7-1.4.9-2.1c-3.1-3-8.5-4.9-12.8-4.9z"/>
    <rect x="13.5" y="19" width="1" height="1" fill="#88C9F9"/>
    <rect x="14.5" y="21" width="1" height="1" fill="#88C9F9"/>
    <rect x="16.5" y="19" width="1" height="1" fill="#55ACEE"/>
    <rect x="18.5" y="20" width="1" height="1" fill="#55ACEE"/>
    <rect x="22.5" y="22" width="1" height="1" fill="#55ACEE"/>
    <rect x="19.5" y="23" width="1" height="1" fill="#55ACEE"/>
    <rect x="22.5" y="17" width="1" height="1" fill="#55ACEE"/>
    <rect x="20.5" y="21" width="1" height="1" fill="#3B88C3"/>
  </g>
</svg>
